<svg width="1200" height="720" viewBox="0 0 1200 720" fill="none" xmlns="http://www.w3.org/2000/svg">
  <defs>
    <linearGradient id="bg" x1="120" y1="48" x2="1040" y2="648" gradientUnits="userSpaceOnUse">
      <stop stop-color="#F3F7F6"/>
      <stop offset="1" stop-color="#E6ECEA"/>
    </linearGradient>
    <linearGradient id="green" x1="462" y1="232" x2="738" y2="486" gradientUnits="userSpaceOnUse">
      <stop stop-color="#3BC381"/>
      <stop offset="1" stop-color="#149B64"/>
    </linearGradient>
    <filter id="shadow" x="106" y="92" width="988" height="494" filterUnits="userSpaceOnUse" color-interpolation-filters="sRGB">
      <feFlood flood-opacity="0" result="BackgroundImageFix"/>
      <feColorMatrix in="SourceAlpha" type="matrix" values="0 0 0 0 0 0 0 0 0 0 0 0 0 0 0 0 0 0 127 0" result="hardAlpha"/>
      <feOffset dy="16"/>
      <feGaussianBlur stdDeviation="24"/>
      <feColorMatrix type="matrix" values="0 0 0 0 0.0745098 0 0 0 0 0.121569 0 0 0 0 0.12549 0 0 0 0.14 0"/>
      <feBlend mode="normal" in2="BackgroundImageFix" result="effect1_dropShadow_0_1"/>
      <feBlend mode="normal" in="SourceGraphic" in2="effect1_dropShadow_0_1" result="shape"/>
    </filter>
    <style>
      .label-kicker { fill: #70807C; font-family: Arial, sans-serif; font-size: 20px; letter-spacing: 2px; }
      .label-title { fill: #223235; font-family: Arial, sans-serif; font-size: 34px; font-weight: 700; }
      .footer-title { fill: #223235; font-family: Arial, sans-serif; font-size: 58px; font-weight: 700; }
      .footer-subtitle { fill: #70807C; font-family: Arial, sans-serif; font-size: 24px; letter-spacing: 1.4px; }
    </style>
  </defs>

  <rect width="1200" height="720" rx="36" fill="url(#bg)"/>
  <circle cx="944" cy="134" r="90" fill="#DDE7E4"/>
  <circle cx="1026" cy="582" r="124" fill="#E2EAE8"/>
  <circle cx="180" cy="582" r="96" fill="#EDF3F1"/>

  <g filter="url(#shadow)">
    <rect x="154" y="124" width="892" height="414" rx="30" fill="#FCFDFC"/>
    <rect x="154" y="124" width="892" height="414" rx="30" stroke="#D9E4E0" stroke-width="2"/>
  </g>

  <rect x="210" y="170" width="292" height="124" rx="24" fill="#F4F8F7"/>
  <rect x="210" y="170" width="292" height="124" rx="24" stroke="#D9E4E0" stroke-width="2"/>
  <text x="356" y="214" text-anchor="middle" class="label-kicker">REAL WORLD INPUT</text>
  <text x="356" y="252" text-anchor="middle" class="label-title">Robot Body</text>
  <text x="356" y="286" text-anchor="middle" class="label-title">Sensor Task</text>

  <rect x="820" y="372" width="178" height="108" rx="24" fill="#F4F8F7"/>
  <rect x="820" y="372" width="178" height="108" rx="24" stroke="#D9E4E0" stroke-width="2"/>
  <text x="909" y="412" text-anchor="middle" class="label-kicker">RUNTIME</text>
  <text x="909" y="450" text-anchor="middle" class="label-title" style="font-size:30px">RoboClaw</text>

  <circle cx="600" cy="334" r="94" fill="url(#green)"/>
  <circle cx="600" cy="334" r="56" fill="#F6FFFB"/>
  <circle cx="600" cy="334" r="12" fill="#1E8A60"/>

  <path d="M410 330H506" stroke="#1E2B2E" stroke-width="18" stroke-linecap="round"/>
  <path d="M694 330H760" stroke="#1E2B2E" stroke-width="18" stroke-linecap="round"/>
  <path d="M770 330C816 330 854 292 854 246V218" stroke="#1E2B2E" stroke-width="18" stroke-linecap="round"/>
  <path d="M854 218H916" stroke="#1E2B2E" stroke-width="18" stroke-linecap="round"/>
  <path d="M772 344C800 344 822 366 822 394V412" stroke="#1E2B2E" stroke-width="18" stroke-linecap="round"/>

  <circle cx="420" cy="330" r="24" fill="#243538"/>
  <circle cx="506" cy="330" r="28" fill="#243538"/>
  <circle cx="760" cy="330" r="28" fill="#243538"/>
  <circle cx="916" cy="218" r="28" fill="#243538"/>
  <circle cx="822" cy="412" r="24" fill="#243538"/>

  <path d="M286 346C354 314 424 304 494 316" stroke="#42C883" stroke-width="6" stroke-linecap="round" stroke-dasharray="2 18"/>
  <path d="M690 212C748 174 816 164 884 172" stroke="#42C883" stroke-width="6" stroke-linecap="round" stroke-dasharray="2 18"/>
  <path d="M680 452C734 474 798 482 868 470" stroke="#42C883" stroke-width="6" stroke-linecap="round" stroke-dasharray="2 18"/>

  <text x="210" y="624" class="footer-title">RoboClaw</text>
  <text x="210" y="664" class="footer-subtitle">A FRAMEWORK FOR EMBODIED INTELLIGENCE IN THE REAL WORLD</text>
</svg>
